<?xml version="1.0" encoding="utf-8"?>
<!-- Generator: Adobe Illustrator 23.0.5, SVG Export Plug-In . SVG Version: 6.00 Build 0)  -->
<svg version="1.1" id="Capa_1" xmlns="http://www.w3.org/2000/svg" xmlns:xlink="http://www.w3.org/1999/xlink" x="0px" y="0px"
	 viewBox="0 0 300 300" style="enable-background:new 0 0 300 300;" xml:space="preserve">
<style type="text/css">
	.st0{fill:#FFFFFF;}
	.st1{fill:#F0047F;}
	.st2{fill:#175FA8;}
</style>
<g>
	<path class="st0" d="M253.32,216.5c0,6.04-0.11,11.84,0.05,17.64c0.07,2.67-0.8,3.93-3.52,4.42c-17.26,3.14-34.49,3.19-51.75,0.01
		c-2.69-0.49-3.54-1.71-3.53-4.4c0.09-21.09,0.05-42.19,0.01-63.28c0-1.71-0.22-3.44-0.56-5.11c-1.1-5.38,1.57-10.07,6.93-11.58
		c1.9-0.54,3.27-1.39,4.55-2.98c5.54-6.88,15.31-8.14,22.51-3.01c1.3,0.93,2.34,1.2,3.94,0.7c6.22-1.95,11.47-0.01,15.29,5.26
		c0.59,0.82,1.6,1.4,2.52,1.91c3.3,1.86,4.34,4.73,4.16,8.44c-0.3,6.58-0.09,13.19-0.09,20.02c1.29,0.23,2.9,0.42,4.45,0.8
		c5.35,1.32,7.94,4.67,7.95,10.16c0.01,3,0,6,0,9c0,7.48-3.59,11.28-11.16,11.84C254.62,216.38,254.17,216.43,253.32,216.5z
		 M248.71,234.3c0.1-0.63,0.21-0.98,0.21-1.33c0.01-20.44-0.02-40.88,0.06-61.33c0.01-2.26-1.19-2.17-2.76-2.17
		c-13.17,0.03-26.35,0.02-39.52,0.02c-2.44,0-4.89,0-7.54,0c0,21.69,0,43.17,0,64.82C215.68,237.31,232.08,237.32,248.71,234.3z
		 M198.32,164.75c0.33,0.14,0.49,0.27,0.65,0.27c16.18,0.03,32.36,0.06,48.54,0.05c1.95,0,2.94-1.89,1.78-3.63
		c-0.65-0.97-1.92-1.54-2.93-2.26c-0.77-0.55-1.86-0.89-2.29-1.62c-3.16-5.38-7.74-6.76-13.01-3.59c-1.59,0.95-2.67,0.81-3.74-0.57
		c-4.86-6.26-14.75-5.3-19.17,1.37c-1.31,1.97-2.69,2.8-4.9,3.17C199.3,158.58,197.94,160.61,198.32,164.75z M253.48,211.73
		c5.39,0.6,8.37-1.91,8.37-6.92c0-2.99,0.01-5.98,0-8.97c-0.01-4.78-3.49-7.4-8.37-6.23C253.48,196.98,253.48,204.37,253.48,211.73z
		"/>
	<path class="st0" d="M248.71,234.3c-16.62,3.02-33.03,3.01-49.55,0.01c0-21.65,0-43.12,0-64.82c2.65,0,5.09,0,7.54,0
		c13.17,0,26.35,0.01,39.52-0.02c1.57,0,2.77-0.09,2.76,2.17c-0.07,20.44-0.05,40.88-0.06,61.33
		C248.92,233.32,248.81,233.67,248.71,234.3z M202.67,231.2c0.72,0.15,1.15,0.26,1.59,0.32c12.68,1.75,25.36,1.75,38.07,0.21
		c2.27-0.27,3.02-0.95,3-3.32c-0.12-15.09-0.06-30.18-0.07-45.28c0-0.96-0.11-1.91-0.17-2.9c-11.8,0-23.3,0-35.02,0
		c0,1.19,0,2.18,0,3.17c0,6.45,0.07,12.91-0.08,19.36c-0.02,0.95-1.01,2.56-1.75,2.68c-1.74,0.29-1.79-1.32-1.78-2.64
		c0-6.36,0-12.73,0-19.09c0-1.14,0-2.29,0-3.42c-1.53,0-2.64,0-3.8,0C202.67,197.37,202.67,214.17,202.67,231.2z"/>
	<path class="st0" d="M198.32,164.75c-0.38-4.14,0.98-6.17,4.94-6.82c2.21-0.37,3.59-1.19,4.9-3.17c4.41-6.67,14.31-7.63,19.17-1.37
		c1.07,1.38,2.15,1.53,3.74,0.57c5.26-3.16,9.84-1.78,13.01,3.59c0.43,0.73,1.53,1.07,2.29,1.62c1.01,0.73,2.28,1.29,2.93,2.26
		c1.16,1.74,0.17,3.63-1.78,3.63c-16.18,0.01-32.36-0.02-48.54-0.05C198.81,165.02,198.65,164.89,198.32,164.75z"/>
	<path class="st0" d="M253.48,211.73c0-7.36,0-14.75,0-22.11c4.89-1.17,8.37,1.45,8.37,6.23c0,2.99,0,5.98,0,8.97
		C261.85,209.82,258.88,212.33,253.48,211.73z"/>
	<path class="st0" d="M202.67,231.2c0-17.02,0-33.83,0-50.89c1.16,0,2.27,0,3.8,0c0,1.13,0,2.27,0,3.42c0,6.36,0,12.73,0,19.09
		c0,1.32,0.04,2.93,1.78,2.64c0.74-0.12,1.73-1.73,1.75-2.68c0.15-6.45,0.08-12.91,0.08-19.36c0-0.99,0-1.98,0-3.17
		c11.72,0,23.22,0,35.02,0c0.06,0.99,0.17,1.94,0.17,2.9c0.01,15.09-0.05,30.18,0.07,45.28c0.02,2.37-0.73,3.04-3,3.32
		c-12.71,1.54-25.39,1.54-38.07-0.21C203.83,231.46,203.39,231.35,202.67,231.2z"/>
</g>
<g>
	<g>
		<path class="st0" d="M48.64,216.35c-7.57-0.56-11.16-4.36-11.16-11.84c0-3,0-6,0-9c0.01-5.49,2.6-8.84,7.95-10.16
			c1.56-0.38,3.16-0.57,4.45-0.8c0-6.83,0.22-13.44-0.09-20.02c-0.17-3.72,0.87-6.58,4.16-8.44c0.91-0.52,1.92-1.09,2.52-1.91
			c3.82-5.27,9.07-7.21,15.29-5.26c1.6,0.5,2.63,0.23,3.94-0.7c7.2-5.14,16.97-3.88,22.51,3.01c1.28,1.59,2.65,2.45,4.55,2.98
			c5.35,1.51,8.03,6.19,6.93,11.58c-0.34,1.67-0.56,3.41-0.56,5.11c-0.04,21.09-0.07,42.19,0.01,63.28c0.01,2.68-0.84,3.9-3.53,4.4
			c-17.26,3.18-34.49,3.13-51.75-0.01c-2.72-0.49-3.59-1.75-3.52-4.42c0.16-5.8,0.05-11.61,0.05-17.64
			C49.54,216.43,49.09,216.38,48.64,216.35z M104.55,234.31c0-21.65,0-43.12,0-64.82c-2.65,0-5.09,0-7.54,0
			c-13.17,0-26.35,0.01-39.52-0.02c-1.57,0-2.77-0.09-2.76,2.17c0.07,20.44,0.05,40.88,0.06,61.33c0,0.35,0.11,0.7,0.21,1.33
			C71.62,237.32,88.03,237.31,104.55,234.31z M100.45,157.92c-2.21-0.37-3.59-1.19-4.9-3.17c-4.41-6.67-14.31-7.63-19.17-1.37
			c-1.07,1.38-2.15,1.53-3.74,0.57c-5.26-3.16-9.84-1.78-13.01,3.59c-0.43,0.73-1.53,1.07-2.29,1.62c-1.01,0.73-2.28,1.29-2.93,2.26
			c-1.16,1.74-0.17,3.63,1.78,3.63c16.18,0.01,32.36-0.02,48.54-0.05c0.16,0,0.33-0.13,0.65-0.27
			C105.77,160.61,104.41,158.58,100.45,157.92z M50.23,189.62c-4.89-1.17-8.37,1.45-8.37,6.23c0,2.99,0,5.98,0,8.97
			c0.01,5,2.98,7.52,8.37,6.92C50.23,204.37,50.23,196.98,50.23,189.62z"/>
		<path class="st0" d="M54.79,232.97c-0.01-20.44,0.02-40.88-0.06-61.33c-0.01-2.26,1.19-2.17,2.76-2.17
			c13.17,0.03,26.35,0.02,39.52,0.02c2.44,0,4.89,0,7.54,0c0,21.69,0,43.17,0,64.82c-16.52,3-32.92,3.01-49.55-0.01
			C54.9,233.67,54.79,233.32,54.79,232.97z M101.04,180.3c-1.16,0-2.27,0-3.8,0c0,1.13,0,2.27,0,3.42c0,6.36,0,12.73,0,19.09
			c0,1.32-0.04,2.93-1.78,2.64c-0.74-0.12-1.73-1.73-1.75-2.68c-0.15-6.45-0.08-12.91-0.08-19.36c0-0.99,0-1.98,0-3.17
			c-11.72,0-23.22,0-35.02,0c-0.06,0.99-0.17,1.94-0.17,2.9c-0.01,15.09,0.05,30.18-0.07,45.28c-0.02,2.37,0.73,3.04,3,3.32
			c12.71,1.54,25.39,1.54,38.07-0.21c0.44-0.06,0.87-0.18,1.59-0.32C101.04,214.17,101.04,197.37,101.04,180.3z"/>
		<path class="st0" d="M105.39,164.75c0.38-4.14-0.98-6.17-4.94-6.82c-2.21-0.37-3.59-1.19-4.9-3.17
			c-4.41-6.67-14.31-7.63-19.17-1.37c-1.07,1.38-2.15,1.53-3.74,0.57c-5.26-3.16-9.84-1.78-13.01,3.59
			c-0.43,0.73-1.53,1.07-2.29,1.62c-1.01,0.73-2.28,1.29-2.93,2.26c-1.16,1.74-0.17,3.63,1.78,3.63
			c16.18,0.01,32.36-0.02,48.54-0.05C104.9,165.02,105.06,164.89,105.39,164.75z"/>
		<path class="st0" d="M50.23,211.73c0-7.36,0-14.75,0-22.11c-4.89-1.17-8.37,1.45-8.37,6.23c0,2.99,0,5.98,0,8.97
			C41.86,209.82,44.83,212.33,50.23,211.73z"/>
		<path class="st0" d="M101.04,231.2c0-17.02,0-33.83,0-50.89c-1.16,0-2.27,0-3.8,0c0,1.13,0,2.27,0,3.42c0,6.36,0,12.73,0,19.09
			c0,1.32-0.04,2.93-1.78,2.64c-0.74-0.12-1.73-1.73-1.75-2.68c-0.15-6.45-0.08-12.91-0.08-19.36c0-0.99,0-1.98,0-3.17
			c-11.72,0-23.22,0-35.02,0c-0.06,0.99-0.17,1.94-0.17,2.9c-0.01,15.09,0.05,30.18-0.07,45.28c-0.02,2.37,0.73,3.04,3,3.32
			c12.71,1.54,25.39,1.54,38.07-0.21C99.88,231.46,100.32,231.35,101.04,231.2z"/>
	</g>
</g>
<g>
	<g>
		<g>
			<path class="st0" d="M156.76,63.63H143.1c-1.23,0-2.23-1-2.23-2.23v0c0-1.98,1.6-3.58,3.58-3.58h10.97c1.98,0,3.58,1.6,3.58,3.58
				v0C158.99,62.63,157.99,63.63,156.76,63.63z"/>
		</g>
		<g>
			<path class="st0" d="M156.76,70.68H143.1c-1.23,0-2.23-1-2.23-2.23v0c0-1.98,1.6-3.58,3.58-3.58h10.97c1.98,0,3.58,1.6,3.58,3.58
				v0C158.99,69.68,157.99,70.68,156.76,70.68z"/>
		</g>
	</g>
	<path class="st0" d="M161.59,108.07c-1.1-17.55-3.1-33.78-5.61-41.69l-12.19,0.01c-2.51,7.93-4.49,24.19-5.56,41.78
		c-0.09,1.39-0.49,2.72-1.17,3.9c8.78,0,17.11,0,25.76,0C162.11,110.86,161.68,109.49,161.59,108.07z"/>
	<g>
		<g>
			<path class="st1" d="M132.24,141.07c4.29-0.4,6.42-0.43,10.66-0.27c-0.34,2.48-0.51,3.71-0.85,6.19
				c-6.85-0.23-10.3-0.02-17.29,1.66c1.93-14.35,2.27-27.45,15.26-36.59c1.33,0,1.99,0,3.31,0
				C135.04,119.85,133.72,130.51,132.24,141.07z"/>
			<path class="st1" d="M149.73,122.72c1.35-2.16,2.72-3.56,4.13-4.45c1.41-0.89,2.73-1.24,4.37-1.17c1.43,0.07,2.83,0.43,4.3,1.22
				c1.47,0.78,2.86,1.82,3.98,3.2c-0.49-1.63-0.83-2.39-1.7-3.71c2,0.12,3,0.18,5,0.31c6.99,9.37,2.3,23.51,0.99,34
				c-2.56-0.7-3.84-1.04-6.41-1.67c0.27-1.98,0.4-2.97,0.67-4.96c-1,1.43-2.29,2.48-3.88,3.18c-1.59,0.7-3.33,0.84-5.22,0.49
				c-1.86-0.35-3.51-1.17-4.95-2.45c-1.44-1.28-2.57-2.93-3.37-4.98c-0.81-2.05-1.21-4.36-1.23-6.97c-0.01-1.21,0.08-2.47,0.26-3.79
				C147.12,127.7,148.38,124.88,149.73,122.72z M166.76,130.89c0.03-2.51-0.68-4.49-1.92-5.87c-1.23-1.38-2.62-2.07-4.09-2.19
				c-1.11-0.09-2.11,0.16-3.09,0.76c-0.98,0.6-1.86,1.54-2.68,2.88c-0.82,1.34-1.49,3.03-1.76,4.99c-0.09,0.75-0.13,1.46-0.13,2.14
				c0.01,2.39,0.54,4.33,1.58,5.85c1.04,1.53,2.36,2.43,3.94,2.71c1.19,0.21,2.34,0.02,3.46-0.58c1.12-0.6,2.08-1.6,2.88-3.02
				c0.8-1.42,1.36-3.19,1.6-5.27C166.7,132.22,166.76,131.4,166.76,130.89z"/>
		</g>
	</g>
	<g>
		<g>
			<path class="st2" d="M126.36,166.76c0.77-4.85,1.71-8.72,2.83-11.55c1.11-2.83,2.3-4.34,3.55-4.47c1.47-0.15,2.69,1.48,3.65,4.83
				c0.96,3.35,1.55,8.09,1.76,14.22c-1.21,0.07-1.81,0.1-3.02,0.19c-0.2-2.59-0.55-4.55-1.02-5.87c-0.48-1.32-1.07-1.95-1.77-1.89
				c-0.78,0.07-1.5,0.98-2.16,2.7c-0.66,1.72-1.22,4.14-1.67,7.24c-0.45,3.1-0.75,6.63-0.9,10.62c-0.06,1.41-0.09,3.02-0.09,4.83
				c0,4.79,0.31,8.54,0.92,11.25c0.62,2.71,1.46,4.07,2.54,4.03c1-0.04,1.87-1.35,2.62-3.95c0.75-2.59,1.3-6.15,1.65-10.68
				c-1.81,0.14-2.72,0.2-4.53,0.31c0.13-3.76,0.2-5.64,0.33-9.4c2.86-0.23,4.28-0.33,7.11-0.52c-0.15,4.33-0.23,6.5-0.39,10.83
				c-0.33,4.34-0.85,8.38-1.56,12.1c-0.71,3.73-1.56,6.74-2.56,9.02c-0.99,2.27-2.06,3.42-3.21,3.43c-1.13,0.01-2.12-1.07-2.98-3.19
				s-1.52-5.07-2-8.82c-0.48-3.75-0.71-8.06-0.71-12.97c0-1.96,0.04-3.99,0.11-6.08C125.09,177.01,125.59,171.61,126.36,166.76z"/>
			<path class="st2" d="M141.2,210.81c-0.69-1.59-1.23-3.93-1.61-7.01c-0.38-3.07-0.58-6.65-0.59-10.72
				c-0.01-5.54,0.25-10.62,0.79-15.22c0.54-4.59,1.29-8.23,2.25-10.89c0.95-2.66,2.02-3.97,3.19-3.96c0.88,0.01,1.66,0.87,2.36,2.56
				c0.69,1.69,1.23,4.03,1.62,7.02c0.39,2.99,0.6,6.41,0.61,10.3c0.03,5.36-0.23,10.24-0.77,14.7c-0.54,4.46-1.29,8.08-2.25,10.84
				c-0.97,2.76-2.05,4.29-3.23,4.51C142.68,213.11,141.89,212.4,141.2,210.81z M145.58,199.63c0.5-1.75,0.89-4.03,1.17-6.82
				c0.27-2.79,0.4-5.7,0.39-8.73c-0.01-3.43-0.23-6.07-0.66-7.91c-0.42-1.85-0.95-2.77-1.58-2.74c-0.63,0.03-1.19,0.89-1.68,2.61
				s-0.86,4-1.12,6.86c-0.27,2.86-0.39,5.87-0.38,9.03c0.01,3.46,0.22,6.1,0.62,7.92c0.4,1.82,0.92,2.67,1.56,2.57
				C144.51,202.32,145.08,201.38,145.58,199.63z"/>
			<path class="st2" d="M152.03,174.44c0.53-3.63,1.18-6.38,1.97-8.27c0.78-1.89,1.61-2.78,2.47-2.72c0.66,0.04,1.27,0.72,1.83,1.99
				s0.97,2.92,1.25,4.96c0.3-8.21,0.45-12.29,0.74-20.36c1.03,0.23,1.55,0.35,2.58,0.6c-0.71,18.88-1.4,37.77-2.08,56.65
				c-1.03,0.38-1.54,0.56-2.57,0.92c0.1-2.64,0.14-3.95,0.24-6.58c-0.39,2.28-0.9,4.19-1.52,5.73c-0.62,1.54-1.32,2.45-2.08,2.69
				c-0.75,0.24-1.42-0.31-2.02-1.66c-0.59-1.35-1.06-3.41-1.4-6.16c-0.34-2.74-0.52-6.01-0.54-9.76c-0.01-1.74,0.02-3.56,0.08-5.48
				C151.15,182.27,151.5,178.07,152.03,174.44z M159.05,183.12c-0.02-3.09-0.24-5.48-0.67-7.2c-0.43-1.72-0.96-2.59-1.6-2.58
				c-0.48,0.01-0.94,0.53-1.38,1.57c-0.44,1.04-0.82,2.57-1.14,4.59c-0.32,2.02-0.53,4.41-0.63,7.17c-0.03,1.05-0.04,2.04-0.04,2.97
				c0.02,3.3,0.24,5.86,0.67,7.65c0.43,1.8,0.96,2.61,1.6,2.45c0.48-0.12,0.94-0.76,1.39-1.91c0.45-1.15,0.83-2.73,1.14-4.75
				c0.31-2.02,0.52-4.34,0.61-6.98C159.04,184.75,159.06,183.75,159.05,183.12z"/>
			<path class="st2" d="M164.45,174.11c0.52-3.22,1.17-5.64,1.94-7.28c0.77-1.63,1.59-2.37,2.45-2.28c0.65,0.07,1.25,0.68,1.8,1.8
				c0.55,1.12,0.95,2.55,1.22,4.3c0.32-7.06,0.48-10.55,0.81-17.43c1.03,0.29,1.54,0.44,2.57,0.73c-0.83,16.1-1.58,32.2-2.3,48.3
				c-0.99,0.45-1.49,0.68-2.49,1.12c0.1-2.3,0.15-3.44,0.25-5.73c-0.39,2.01-0.88,3.73-1.49,5.15c-0.61,1.42-1.28,2.31-2.02,2.62
				c-0.73,0.31-1.38-0.08-1.96-1.21c-0.58-1.13-1.03-2.9-1.37-5.32c-0.33-2.41-0.51-5.32-0.53-8.68c-0.01-1.55,0.02-3.19,0.08-4.9
				C163.59,181.09,163.93,177.34,164.45,174.11z M171.34,181.62c-0.01-2.67-0.22-4.72-0.64-6.21c-0.42-1.49-0.94-2.25-1.57-2.24
				c-0.47,0-0.92,0.45-1.36,1.37c-0.44,0.91-0.81,2.26-1.13,4.04c-0.32,1.78-0.52,3.9-0.62,6.35c-0.03,0.93-0.05,1.81-0.04,2.63
				c0.01,2.91,0.23,5.16,0.65,6.71c0.42,1.55,0.93,2.21,1.56,2.01c0.47-0.15,0.92-0.75,1.35-1.79c0.44-1.04,0.81-2.45,1.12-4.21
				c0.31-1.77,0.52-3.79,0.62-6.06C171.32,183.03,171.34,182.16,171.34,181.62z"/>
		</g>
	</g>
	<path class="st0" d="M124.75,214.09v20.57c0,4.15,3.36,7.52,7.52,7.52h35.46c4.15,0,7.52-3.36,7.52-7.52v-32.89
		C159.33,209.38,142.12,215.52,124.75,214.09z"/>
</g>
</svg>
